<svg width="500" height="500" viewBox="0 0 500 500" fill="none" xmlns="http://www.w3.org/2000/svg">
<g clip-path="url(#clip0_2703_40)">
<rect width="500" height="500" fill="#111111"/>
<path d="M225.952 247.225C225.952 247.225 249.615 245.426 249.615 217.087C249.615 188.771 233.566 174.813 209.036 174.813L125.001 174.68V331.162H210.99C210.99 331.162 253.985 332.524 253.985 284.218C253.985 284.218 257.143 247.225 225.952 247.225ZM156.27 198.152H199.264C199.264 198.152 213.976 198.395 213.976 217.486C213.976 237.273 199.264 237.273 199.264 237.273H156.27V198.152ZM203.173 307.69H156.27V260.745H203.173C203.173 260.745 226.624 260.988 226.624 284.218C226.624 307.447 206.55 307.69 203.173 307.69Z" fill="white"/>
<path d="M320.433 213.805C261.702 213.805 261.804 272.486 261.804 272.486C261.804 272.486 257.896 331.167 320.433 331.167C320.433 331.167 375.153 331.167 375.153 284.222H343.885C343.885 284.222 343.885 307.694 320.433 307.694C320.433 307.694 296.981 307.694 296.981 276.398C296.981 276.398 359.519 276.398 375.153 276.398C375.153 260.75 375.153 213.805 320.433 213.805ZM296.981 260.75C296.981 260.75 296.466 237.277 320.433 237.277C344.393 237.277 343.885 260.75 343.885 260.75H296.981Z" fill="white"/>
<path d="M351.704 190.328H289.166V205.976H351.704V190.328Z" fill="white"/>
</g>
<defs>
<clipPath id="clip0_2703_40">
<rect width="500" height="500" fill="white"/>
</clipPath>
</defs>
</svg>
