<svg width="500" height="500" viewBox="0 0 500 500" fill="none" xmlns="http://www.w3.org/2000/svg">
<rect width="500" height="500" fill="black"/>
<g clip-path="url(#clip0_2703_58)">
<path d="M390 205.759C388.88 198.479 380.76 194.559 375.16 190.919C365.08 184.199 355.28 177.759 345.2 171.039C321.4 155.079 297.32 139.119 273.52 123.159C267.92 119.519 262.32 115.599 256.72 111.959C252.8 109.159 247.48 109.159 243.28 111.959C227.32 122.599 211.08 133.519 195.12 144.159L124.56 191.199C118.4 195.119 110.28 199.039 110 207.439C109.72 216.679 110 226.199 110 235.439V280.239C110 288.359 108.32 297.879 115.88 302.919C133.8 315.239 152 326.999 170.2 339.039C192.6 353.879 215 368.999 237.4 383.839C243.56 388.039 249.72 392.519 257.28 387.479C263.72 383.279 269.88 379.079 276.32 374.879C301.24 358.359 326.16 341.559 351.08 325.039L378.8 306.559C380.48 305.439 382.44 304.319 384.12 302.919C388.04 300.119 389.72 296.199 389.72 291.439V214.439C390 211.359 390.28 208.559 390 205.759C390 206.319 390 205.479 390 205.759ZM262.04 144.439L356.4 207.439L314.4 235.719L262.04 200.719V144.439ZM237.96 144.439V200.439L185.88 235.439L143.6 207.439L237.96 144.439ZM134.08 229.839L164.04 249.999L134.08 270.159V229.839ZM237.96 355.559L143.6 292.559L185.6 264.279L237.68 299.279V355.559H237.96ZM250 278.559L207.44 249.999L250 221.439L292.56 249.999L250 278.559ZM262.04 355.559V299.559L314.12 264.559L356.12 292.839L262.04 355.559ZM365.92 270.159L335.96 249.999L366.2 229.839L365.92 270.159Z" fill="#FAFAFA"/>
</g>
<defs>
<clipPath id="clip0_2703_58">
<rect width="280" height="280" fill="white" transform="translate(110 110)"/>
</clipPath>
</defs>
</svg>
