<svg width="500" height="500" viewBox="0 0 500 500" fill="none" xmlns="http://www.w3.org/2000/svg">
<g clip-path="url(#clip0_2703_31)">
<rect y="0.398438" width="500" height="500" fill="#E74D89"/>
<path d="M251.196 388.114C175.934 388.114 114.676 326.856 114.676 251.594C114.676 176.332 175.934 115.074 251.196 115.074C326.458 115.074 387.715 176.332 387.715 251.594C387.715 326.856 326.458 388.114 251.196 388.114ZM251.196 137.094C188.044 137.094 136.695 188.443 136.695 251.594C136.695 314.745 188.044 366.095 251.196 366.095C314.347 366.095 365.696 314.745 365.696 251.594C365.696 188.443 314.347 137.094 251.196 137.094Z" fill="white"/>
<path d="M211.566 238.164C185.76 238.164 157.839 234.332 128.069 226.582C122.168 225.04 118.645 219.051 120.186 213.15C121.727 207.249 127.717 203.725 133.618 205.267C223.809 228.695 294.403 213.854 337.737 162.417C341.657 157.793 348.615 157.177 353.239 161.096C357.907 165.015 358.479 171.974 354.56 176.598C320.166 217.421 271.547 238.164 211.566 238.164Z" fill="white"/>
<path d="M156.522 344.999C153.968 344.999 151.457 344.118 149.388 342.357C144.764 338.393 144.235 331.435 148.154 326.811C212.539 251.549 295.86 233.669 376.759 277.84C382.088 280.747 384.07 287.441 381.163 292.769C378.256 298.098 371.563 300.08 366.234 297.173C269.085 244.195 198.403 301.973 164.889 341.168C162.731 343.678 159.649 344.999 156.522 344.999Z" fill="white"/>
<path d="M287.264 382.834C286.868 382.834 286.472 382.834 286.075 382.79C280.042 382.129 275.682 376.713 276.343 370.635C284.93 291.894 264.672 212.493 216.186 134.544C212.971 129.392 214.556 122.61 219.709 119.395C224.861 116.18 231.643 117.765 234.858 122.918C286.031 205.138 307.346 289.296 298.23 373.057C297.569 378.694 292.813 382.834 287.264 382.834Z" fill="white"/>
</g>
<defs>
<clipPath id="clip0_2703_31">
<rect width="500" height="500" fill="white"/>
</clipPath>
</defs>
</svg>
