<svg width="500" height="500" viewBox="0 0 500 500" fill="none" xmlns="http://www.w3.org/2000/svg">
<g clip-path="url(#clip0_2703_23)">
<rect width="500" height="500" fill="#1E1E1E"/>
<g clip-path="url(#clip1_2703_23)">
<path d="M250 252.778C250 238.78 255.561 225.356 265.458 215.458C275.356 205.561 288.78 200 302.778 200C316.775 200 330.2 205.561 340.097 215.458C349.995 225.356 355.556 238.78 355.556 252.778C355.556 266.775 349.995 280.2 340.097 290.097C330.2 299.995 316.775 305.556 302.778 305.556C288.78 305.556 275.356 299.995 265.458 290.097C255.561 280.2 250 266.775 250 252.778V252.778Z" fill="#1ABCFE"/>
<path d="M144.445 358.332C144.445 344.335 150.006 330.911 159.904 321.013C169.801 311.115 183.226 305.555 197.223 305.555H250.001V358.332C250.001 372.33 244.44 385.754 234.543 395.652C224.645 405.55 211.221 411.11 197.223 411.11C183.226 411.11 169.801 405.55 159.904 395.652C150.006 385.754 144.445 372.33 144.445 358.332V358.332Z" fill="#0ACF83"/>
<path d="M250 94.4453V200.001H302.778C316.775 200.001 330.2 194.44 340.097 184.543C349.995 174.645 355.556 161.221 355.556 147.223C355.556 133.226 349.995 119.801 340.097 109.904C330.2 100.006 316.775 94.4453 302.778 94.4453H250Z" fill="#FF7262"/>
<path d="M144.445 147.223C144.445 161.221 150.006 174.645 159.904 184.543C169.801 194.44 183.226 200.001 197.223 200.001H250.001V94.4453H197.223C183.226 94.4453 169.801 100.006 159.904 109.904C150.006 119.801 144.445 133.226 144.445 147.223V147.223Z" fill="#F24E1E"/>
<path d="M144.445 252.778C144.445 266.775 150.006 280.2 159.904 290.097C169.801 299.995 183.226 305.556 197.223 305.556H250.001V200H197.223C183.226 200 169.801 205.561 159.904 215.458C150.006 225.356 144.445 238.78 144.445 252.778V252.778Z" fill="#A259FF"/>
</g>
</g>
<defs>
<clipPath id="clip0_2703_23">
<rect width="500" height="500" fill="white"/>
</clipPath>
<clipPath id="clip1_2703_23">
<rect width="211.111" height="316.667" fill="white" transform="translate(144.445 94.4453)"/>
</clipPath>
</defs>
</svg>
