<svg width="500" height="500" viewBox="0 0 500 500" fill="none" xmlns="http://www.w3.org/2000/svg">
<g clip-path="url(#clip0_2703_47)">
<rect width="500" height="500" fill="#1B1F23"/>
<path fill-rule="evenodd" clip-rule="evenodd" d="M249.749 114.676C172.105 114.676 109.217 177.314 109.217 254.649C109.217 316.587 149.444 368.902 205.305 387.448C212.332 388.673 214.967 384.474 214.967 380.799C214.967 377.475 214.791 366.452 214.791 354.729C179.483 361.203 170.348 346.156 167.538 338.283C165.957 334.258 159.106 321.836 153.133 318.511C148.214 315.887 141.188 309.413 152.957 309.238C164.024 309.063 171.929 319.386 174.564 323.585C187.212 344.756 207.413 338.807 215.494 335.133C216.724 326.035 220.413 319.911 224.453 316.412C193.185 312.912 160.511 300.84 160.511 247.3C160.511 232.078 165.957 219.48 174.915 209.682C173.51 206.183 168.592 191.836 176.321 172.59C176.321 172.59 188.09 168.915 214.967 186.937C226.21 183.787 238.155 182.213 250.1 182.213C262.045 182.213 273.99 183.787 285.233 186.937C312.11 168.74 323.879 172.59 323.879 172.59C331.608 191.836 326.69 206.183 325.285 209.682C334.243 219.48 339.689 231.903 339.689 247.3C339.689 301.015 306.84 312.912 275.571 316.412C280.666 320.786 285.057 329.184 285.057 342.307C285.057 361.028 284.882 376.075 284.882 380.799C284.882 384.474 287.517 388.848 294.543 387.448C350.053 368.902 390.28 316.412 390.28 254.649C390.28 177.314 327.392 114.676 249.749 114.676Z" fill="white"/>
</g>
<defs>
<clipPath id="clip0_2703_47">
<rect width="500" height="500" fill="white"/>
</clipPath>
</defs>
</svg>
