<svg width="500" height="500" viewBox="0 0 500 500" fill="none" xmlns="http://www.w3.org/2000/svg">
<g clip-path="url(#clip0_2703_61)">
<rect width="500" height="500" fill="#006699"/>
<path d="M192.486 351.318V216.253H147.632V351.318H192.49H192.486ZM170.068 197.816C185.706 197.816 195.442 187.444 195.442 174.483C195.149 161.226 185.706 151.145 170.366 151.145C155.014 151.145 144.988 161.226 144.988 174.482C144.988 187.443 154.721 197.814 169.774 197.814H170.065L170.068 197.816ZM217.313 351.318H262.163V275.9C262.163 271.868 262.455 267.826 263.64 264.947C266.881 256.878 274.261 248.526 286.655 248.526C302.881 248.526 309.375 260.911 309.375 279.07V351.318H354.224V273.876C354.224 232.392 332.099 213.087 302.59 213.087C278.397 213.087 267.771 226.621 261.867 235.839H262.166V216.258H217.315C217.9 228.929 217.311 351.322 217.311 351.322L217.313 351.318Z" fill="white"/>
</g>
<defs>
<clipPath id="clip0_2703_61">
<rect width="500" height="500" fill="white"/>
</clipPath>
</defs>
</svg>
