<svg width="500" height="500" viewBox="0 0 500 500" fill="none" xmlns="http://www.w3.org/2000/svg">
<g clip-path="url(#clip0_2703_69)">
<rect width="500" height="500" fill="#5865F2"/>
<path d="M341.162 168.051C370.624 211.675 385.174 260.882 379.735 317.53C379.712 317.77 379.588 317.99 379.392 318.134C357.082 334.633 335.465 344.646 314.152 351.286C313.986 351.337 313.809 351.334 313.644 351.278C313.48 351.222 313.337 351.116 313.236 350.974C308.312 344.074 303.838 336.8 299.919 329.162C299.694 328.712 299.899 328.17 300.362 327.993C307.467 325.297 314.224 322.065 320.723 318.239C321.235 317.937 321.267 317.198 320.795 316.844C319.415 315.812 318.049 314.729 316.741 313.645C316.497 313.445 316.167 313.405 315.89 313.54C273.698 333.162 227.478 333.162 184.787 313.54C184.51 313.415 184.181 313.458 183.943 313.655C182.638 314.739 181.269 315.812 179.902 316.844C179.43 317.198 179.469 317.937 179.984 318.239C186.483 321.993 193.239 325.297 200.335 328.006C200.795 328.183 201.013 328.712 200.785 329.162C196.95 336.81 192.476 344.084 187.461 350.984C187.243 351.263 186.884 351.391 186.545 351.286C165.333 344.646 143.717 334.633 121.406 318.134C121.22 317.99 121.086 317.76 121.067 317.52C116.521 268.52 125.785 218.906 159.604 168.041C159.685 167.907 159.809 167.801 159.952 167.739C176.593 160.048 194.42 154.39 213.052 151.158C213.392 151.106 213.731 151.263 213.907 151.566C216.209 155.671 218.84 160.935 220.621 165.237C240.261 162.215 260.208 162.215 280.259 165.237C282.039 161.027 284.579 155.671 286.872 151.566C286.953 151.416 287.08 151.296 287.233 151.222C287.387 151.149 287.559 151.127 287.726 151.158C306.369 154.4 324.196 160.058 340.823 167.739C340.97 167.801 341.09 167.907 341.162 168.051V168.051ZM230.606 261.217C230.811 246.731 220.324 234.745 207.16 234.745C194.104 234.745 183.718 246.626 183.718 261.217C183.718 275.804 194.309 287.685 207.16 287.685C220.22 287.685 230.606 275.804 230.606 261.217V261.217ZM317.286 261.217C317.491 246.731 307.004 234.745 293.844 234.745C280.784 234.745 270.398 246.626 270.398 261.217C270.398 275.804 280.989 287.685 293.844 287.685C307.004 287.685 317.286 275.804 317.286 261.217V261.217Z" fill="white"/>
</g>
<defs>
<clipPath id="clip0_2703_69">
<rect width="500" height="500" fill="white"/>
</clipPath>
</defs>
</svg>
