<svg width="500" height="500" viewBox="0 0 500 500" fill="none" xmlns="http://www.w3.org/2000/svg">
<g clip-path="url(#clip0_2703_71)">
<rect width="500" height="500" fill="black"/>
<path d="M268 256.682C268 299.491 232.714 334.251 189.003 334.251C145.291 334.251 110.006 299.491 110.006 256.682C110.006 213.874 145.291 179.113 189.003 179.113C232.714 179.113 268 213.874 268 256.682ZM354.545 256.682C354.545 296.922 336.815 329.628 315.047 329.628C293.279 329.628 275.548 296.922 275.548 256.682C275.548 216.442 293.279 183.737 315.047 183.737C336.815 183.737 354.545 216.271 354.545 256.682ZM390.006 256.682C390.006 292.812 383.862 322.093 376.138 322.093C368.413 322.093 362.269 292.812 362.269 256.682C362.269 220.552 368.413 191.271 376.138 191.271C383.862 191.271 390.006 220.552 390.006 256.682Z" fill="white"/>
</g>
<defs>
<clipPath id="clip0_2703_71">
<rect width="500" height="500" fill="white"/>
</clipPath>
</defs>
</svg>
