<svg width="500" height="500" viewBox="0 0 500 500" fill="none" xmlns="http://www.w3.org/2000/svg">
<g clip-path="url(#clip0_2703_73)">
<rect width="500" height="500" fill="#10BC4C"/>
<path d="M375.15 125.535H125V375.908H375.15V125.535Z" fill="#10BC4C"/>
<path fill-rule="evenodd" clip-rule="evenodd" d="M250.075 125.535C181.284 125.535 125 181.869 125 250.721C125 319.574 181.284 375.907 250.075 375.907C318.866 375.907 375.15 319.574 375.15 250.721C375.15 181.869 319.492 125.535 250.075 125.535ZM307.609 306.429C305.108 310.185 300.73 311.437 296.978 308.933C267.585 290.781 230.688 287.025 186.912 297.04C182.534 298.292 178.782 295.162 177.531 291.407C176.281 287.025 179.408 283.27 183.16 282.018C230.688 271.377 271.963 275.759 304.483 295.788C308.86 297.666 309.486 302.674 307.609 306.429ZM322.618 272.003C319.492 276.384 313.863 278.262 309.486 275.133C275.715 254.477 224.435 248.218 185.036 260.736C180.033 261.988 174.405 259.484 173.154 254.477C171.903 249.469 174.405 243.836 179.408 242.584C225.06 228.814 281.344 235.699 320.117 259.484C323.869 261.362 325.745 267.621 322.618 272.003ZM323.869 236.951C283.845 213.165 216.93 210.662 178.782 222.554C172.528 224.432 166.275 220.677 164.399 215.043C162.522 208.784 166.275 202.525 171.903 200.647C216.305 187.502 289.474 190.006 335.751 217.547C341.38 220.677 343.256 228.188 340.129 233.821C337.002 238.203 329.498 240.08 323.869 236.951Z" fill="white"/>
</g>
<defs>
<clipPath id="clip0_2703_73">
<rect width="500" height="500" fill="white"/>
</clipPath>
</defs>
</svg>
