<svg width="500" height="500" viewBox="0 0 500 500" fill="none" xmlns="http://www.w3.org/2000/svg">
<rect width="500" height="500" fill="#17181C"/>
<path fill-rule="evenodd" clip-rule="evenodd" d="M294.386 101.697C296.908 104.828 298.194 109.052 300.766 117.502L356.953 302.079C335.848 291.127 313.196 283.458 289.778 279.336L253.194 155.708C252.902 154.722 252.3 153.856 251.475 153.242C250.651 152.627 249.649 152.295 248.621 152.297C247.592 152.298 246.592 152.633 245.769 153.25C244.947 153.868 244.347 154.735 244.058 155.723L207.917 279.274C184.394 283.376 161.637 291.058 140.439 302.051L196.903 117.459C199.483 109.024 200.773 104.807 203.295 101.682C205.521 98.9232 208.417 96.7806 211.707 95.4583C215.433 93.9609 219.843 93.9609 228.663 93.9609H268.993C277.824 93.9609 282.24 93.9609 285.97 95.4617C289.262 96.7866 292.159 98.9334 294.386 101.697Z" fill="white"/>
<path fill-rule="evenodd" clip-rule="evenodd" d="M301.109 310.862C291.847 318.783 273.359 324.185 252.063 324.185C225.925 324.185 204.018 316.047 198.204 305.104C196.126 311.376 195.66 318.554 195.66 323.139C195.66 323.139 194.291 345.656 209.952 361.316C209.952 353.184 216.544 346.593 224.675 346.593C238.613 346.593 238.598 358.752 238.585 368.618L238.584 369.499C238.584 384.473 247.736 397.309 260.752 402.72C258.808 398.722 257.717 394.232 257.717 389.487C257.717 375.205 266.102 369.887 275.846 363.707C283.599 358.79 292.214 353.327 298.151 342.367C301.249 336.649 303.007 330.099 303.007 323.139C303.007 318.859 302.342 314.734 301.109 310.862Z" fill="#D94DD1" stroke="#D94DD1" stroke-width="4.98" stroke-linecap="round" stroke-linejoin="round"/>
</svg>
