<svg width="500" height="500" viewBox="0 0 500 500" fill="none" xmlns="http://www.w3.org/2000/svg">
<g clip-path="url(#clip0_2703_158)">
<rect width="500" height="500" fill="#0054A6"/>
<g clip-path="url(#clip1_2703_158)">
<rect x="-0.0449219" width="500" height="500" fill="#1B1D20"/>
<rect width="500" height="500" transform="translate(-0.277344 -0.445312)" fill="#010101"/>
<g clip-path="url(#clip2_2703_158)">
<path d="M257.669 79.8457H241.348V417.372H257.669V79.8457Z" fill="#F5F5F5"/>
<path d="M257.669 79.8457H241.348V417.372H257.669V79.8457Z" fill="#F5F5F5"/>
<path d="M418.27 240.447H80.7432V256.769H418.27V240.447Z" fill="#F5F5F5"/>
<path d="M418.27 240.447H80.7432V256.769H418.27V240.447Z" fill="#F5F5F5"/>
<path d="M135.915 123.494L124.374 135.035L363.04 373.7L374.58 362.158L135.915 123.494Z" fill="#F5F5F5"/>
<path d="M135.915 123.494L124.374 135.035L363.04 373.7L374.58 362.158L135.915 123.494Z" fill="#F5F5F5"/>
<path d="M363.04 123.49L124.374 362.155L135.915 373.695L374.58 135.031L363.04 123.49Z" fill="#F5F5F5"/>
<path d="M363.04 123.49L124.374 362.155L135.915 373.695L374.58 135.031L363.04 123.49Z" fill="#F5F5F5"/>
<path d="M96.3417 177.432L90.1836 192.547L402.767 319.897L408.925 304.78L96.3417 177.432Z" fill="#F5F5F5"/>
<path d="M96.3417 177.432L90.1836 192.547L402.767 319.897L408.925 304.78L96.3417 177.432Z" fill="#F5F5F5"/>
<path d="M305.677 89.3086L178.328 401.891L193.443 408.049L320.792 95.4667L305.677 89.3086Z" fill="#F5F5F5"/>
<path d="M305.677 89.3086L178.328 401.891L193.443 408.049L320.792 95.4667L305.677 89.3086Z" fill="#F5F5F5"/>
<path d="M403.139 177.998L90.0156 304.03L96.11 319.172L409.233 193.139L403.139 177.998Z" fill="#F5F5F5"/>
<path d="M403.139 177.998L90.0156 304.03L96.11 319.172L409.233 193.139L403.139 177.998Z" fill="#F5F5F5"/>
<path d="M193.969 89.123L178.827 95.2158L304.826 408.339L319.966 402.247L193.969 89.123Z" fill="#F5F5F5"/>
<path d="M193.969 89.123L178.827 95.2158L304.826 408.339L319.966 402.247L193.969 89.123Z" fill="#F5F5F5"/>
</g>
</g>
</g>
<defs>
<clipPath id="clip0_2703_158">
<rect width="500" height="500" fill="white"/>
</clipPath>
<clipPath id="clip1_2703_158">
<rect x="-0.0449219" width="500" height="500" fill="white"/>
</clipPath>
<clipPath id="clip2_2703_158">
<rect width="337.526" height="339.823" fill="white" transform="translate(80.7432 79.5059)"/>
</clipPath>
</defs>
</svg>
